# xmcd
#
# Track frame offsets: 
#        150
#        21204
#        37750
#        55998
#        74194
#        98430
#        118127
#        137775
#        153075
#        170821
#        188341
#        206346
#        224451
#        240771
#        259814
#        276454
#        290845
#        310336
#
# Disc length: 4417 seconds
#
# Revision: 1
# Processed by: cddbd v1.5.2PL0 Copyright (c) Steve Scherf et al.
# Submitted via: ExactAudioCopyFreeDBPlugin 1.0
#
DISCID=0b113f12
DTITLE=Андрей Губин - The Best - Время романтиков
DYEAR=2004
DGENRE=Pop
TTITLE0=Время романтиков
TTITLE1=Лишь для тебя
TTITLE2=Девушки как звёзды
TTITLE3=Танцы
TTITLE4=К Алине
TTITLE5=Будь со мной
TTITLE6=Убегает лето
TTITLE7=Облака
TTITLE8=Плачь, любовь
TTITLE9=Зима - холода
TTITLE10=День и ночь
TTITLE11=Птица
TTITLE12=Забытый тобой
TTITLE13=Милая моя далеко
TTITLE14=Ночь
TTITLE15=Мальчик-бродяга
TTITLE16=Лиза
TTITLE17=Время романтиков (дуэт с Сашей Балакиревой)
EXTD=
EXTT0=
EXTT1=
EXTT2=
EXTT3=
EXTT4=
EXTT5=
EXTT6=
EXTT7=
EXTT8=
EXTT9=
EXTT10=
EXTT11=
EXTT12=
EXTT13=
EXTT14=
EXTT15=
EXTT16=
EXTT17=
PLAYORDER=
